HIERARCHY
ROOT Hips
{
  OFFSET 1.44925e-005 102.336 -0.101585
  CHANNELS 6 Xposition Yposition Zposition Zrotation Xrotation Yrotation
  JOINT RightUpLeg
  {
    OFFSET -8.9458 -8.66707 0.101652
    CHANNELS 3 Zrotation Xrotation Yrotation
    JOINT RightLeg
    {
      OFFSET 0 -44.4227 1.3727
      CHANNELS 3 Zrotation Xrotation Yrotation
      JOINT RightFoot
      {
        OFFSET 0.253549 -42.0924 -1.46059
        CHANNELS 3 Zrotation Xrotation Yrotation
        JOINT RightToes
        {
          OFFSET 0.04 -4.41509 8.4991
          CHANNELS 3 Zrotation Xrotation Yrotation
          End Site
          {
            OFFSET -0.08 -0.137448 9.77979
          }
        }
      }
    }
  }
  JOINT Spine
  {
    OFFSET 0 11.8905 0
    CHANNELS 3 Zrotation Xrotation Yrotation
    JOINT Spine1
    {
      OFFSET 0 25.6574 0.127663
      CHANNELS 3 Zrotation Xrotation Yrotation
      JOINT HEad
      {
        OFFSET 0 8.73416 0.011341
        CHANNELS 3 Zrotation Xrotation Yrotation
        End Site
        {
          OFFSET -0.29 12.7742 2.51395
        }
      }
      JOINT LeftShoulder1
      {
        OFFSET 8.99 -0.362252 -0.22
        CHANNELS 3 Zrotation Xrotation Yrotation
        JOINT LeftArm
        {
          OFFSET 10.2827 -0.00337999 0.322123
          CHANNELS 3 Zrotation Xrotation Yrotation
          JOINT LeftForeArm
          {
            OFFSET 26.2597 0.099144 -1.42434
            CHANNELS 3 Zrotation Xrotation Yrotation
            JOINT LeftHand
            {
              OFFSET 22.0902 0.085362 1.02216
              CHANNELS 3 Zrotation Xrotation Yrotation
              End Site
              {
                OFFSET 13.419 -0.6 1.50291
              }
            }
          }
        }
      }
      JOINT RightShoulder
      {
        OFFSET -8.99 -0.362252 -0.22
        CHANNELS 3 Zrotation Xrotation Yrotation
        JOINT RightArm
        {
          OFFSET -10.2827 -0.00338 0.322123
          CHANNELS 3 Zrotation Xrotation Yrotation
          JOINT RightForeArm
          {
            OFFSET -26.364 0.099144 -1.42434
            CHANNELS 3 Zrotation Xrotation Yrotation
            JOINT RightHand
            {
              OFFSET -22.0324 0.085362 1.02216
              CHANNELS 3 Zrotation Xrotation Yrotation
              End Site
              {
                OFFSET -13.3284 -0.6 1.50291
              }
            }
          }
        }
      }
    }
  }
  JOINT LeftUpLeg
  {
    OFFSET 8.9458 -8.66707 0.101652
    CHANNELS 3 Zrotation Xrotation Yrotation
    JOINT LeftLeg
    {
      OFFSET 0 -44.4227 1.3727
      CHANNELS 3 Zrotation Xrotation Yrotation
      JOINT LeftFoot
      {
        OFFSET -0.253549 -42.0924 -1.46059
        CHANNELS 3 Zrotation Xrotation Yrotation
        JOINT LeftToes
        {
          OFFSET -0.04 -4.41509 8.4991
          CHANNELS 3 Zrotation Xrotation Yrotation
          End Site
          {
            OFFSET 0.08 -0.047448 9.77979
          }
        }
      }
    }
  }
}
MOTION
Frames:	12
Frame Time:	0.0333333
-80.5793 98.3303 143.282 0.606767 5.84568 144.825 -20.6279 -13.2379 -35.1108 -0.730852 72.9332 3.00481 13.3068 -5.12113 -0.444819 0.0462048 0.000530889 0.662642 -1.79718 15.3097 5.76427 -5.47473 8.11909 6.63229 3.166 -18.6535 2.92611 -23.3222 2.45218 -4.76651 -53.9193 -2.79418 -23.0955 -25.309 14.6271 -62.7952 18.7607 6.42723 -16.6661 34.8889 5.70751 9.85073 35.503 10.9646 28.12 -20.5535 28.544 77.4263 -31.9218 7.88736 1.90752 -0.744495 -22.2945 10.6729 0.220308 46.3873 -4.62563 -0.199054 -19.7541 0.0851957 -1.35869e-009 8.75238e-006 -1.4732e-008 
-77.8856 99.3494 142.518 1.59806 5.5416 144.388 -23.0091 -15.6936 -36.9319 -0.802958 68.7341 1.36572 10.9347 -7.19089 -0.210814 0.0462048 0.000530889 0.662642 -0.0599143 16.3669 5.19368 -5.88163 7.45342 6.45995 2.8464 -17.3226 2.68856 -22.984 2.49316 -4.99599 -54.3881 -1.87941 -23.6908 -24.6323 14.5516 -62.1954 18.0864 6.51994 -16.9274 34.5039 5.64971 9.83768 35.9884 10.3027 27.7195 -19.1679 28.5253 76.1976 -32.406 7.89501 1.76186 1.823 -19.2396 11.8746 0.167465 44.4552 -5.46602 -0.779127 -20.0395 0.0213735 -1.35869e-009 8.75238e-006 -1.4732e-008 
-75.3105 99.7211 141.848 2.45697 5.53235 143.514 -24.9968 -17.6929 -37.5158 -0.611557 62.5122 1.58371 10.4713 -8.73279 -0.0782112 0.0462048 0.000530889 0.662642 1.06184 18.0306 4.71458 -6.06342 6.52991 6.20793 2.60917 -16.1927 3.08818 -22.8621 2.52172 -5.12721 -54.8158 -1.11888 -24.6216 -23.9618 14.5676 -61.7538 17.7086 6.65436 -16.5433 34.2087 5.61236 9.84422 36.2896 9.6378 27.6191 -17.7876 28.517 74.8172 -32.6909 7.88361 1.73439 3.748 -16.9543 12.1813 0.184855 44.0823 -5.18085 -1.4099 -21.0011 -0.0559748 -1.35869e-009 8.75238e-006 -1.4732e-008 
-72.7554 99.5063 141.242 3.3043 5.51208 142.72 -26.4308 -19.2363 -37.3684 -0.411624 54.6423 2.47886 10.7965 -8.96699 -0.056067 0.0462048 0.000530889 0.662642 1.89586 19.7915 4.18589 -5.64884 5.66099 5.75709 2.42857 -15.367 4.01006 -22.6571 2.56366 -5.3289 -55.4642 -0.312364 -26.206 -23.0993 14.6033 -61.1774 17.5729 6.79113 -15.8061 34.0406 5.56295 9.77861 36.544 8.40284 27.5643 -16.4342 28.3882 73.7124 -32.6249 7.74291 2.25033 5.54605 -15.5079 11.878 0.234053 45.2033 -4.28197 -2.51979 -22.709 -0.217551 -1.35869e-009 8.75238e-006 -1.4732e-008 
-70.2013 98.8419 140.648 4.02981 5.4453 141.903 -27.5343 -20.5959 -36.598 -0.30472 45.7407 2.79937 10.4728 -7.76486 -0.161142 0.0462048 0.000530889 0.662642 2.41792 21.0581 3.63562 -4.56599 5.46052 5.1315 2.11003 -14.767 5.38262 -22.459 2.59951 -5.50967 -55.9763 0.753858 -28.6512 -22.171 14.6202 -60.4576 16.9464 7.00021 -15.1798 34.0357 5.53006 9.69912 36.7356 6.37387 27.758 -15.0642 28.1289 72.9269 -32.5047 7.55778 2.93821 7.11812 -14.5584 11.1579 0.323497 47.2337 -2.74381 -3.61536 -24.9243 -0.425868 -1.35869e-009 8.75238e-006 -1.4732e-008 
-67.5214 97.8017 140.029 4.35509 5.735 140.841 -28.8481 -21.6565 -35.3821 -0.343316 36.5215 1.7899 9.50444 -6.35012 -0.273403 0.0462048 0.000530889 0.662642 1.72472 21.654 3.24449 -2.80869 6.09163 4.28554 1.58881 -14.2237 7.2433 -22.6403 2.60473 -5.47493 -55.7647 1.93133 -31.8614 -20.824 14.8799 -59.8486 16.0719 7.22669 -14.6933 34.1783 5.56718 9.74329 36.8747 3.8019 28.3765 -13.9003 27.9206 72.1552 -32.7759 7.44966 3.24528 7.93058 -13.5358 9.97342 0.437224 49.6257 -0.825821 -4.81652 -27.644 -0.722033 -1.35869e-009 8.75238e-006 -1.4732e-008 
-64.5853 96.6695 139.322 4.38781 6.48936 139.489 -30.2518 -22.0506 -33.3643 -0.192025 27.3734 -1.15943 9.10329 -6.2223 -0.277381 0.0462048 0.000530889 0.662642 -0.199425 21.7964 3.07483 -0.320813 7.16685 3.21927 1.00943 -13.6231 9.4899 -23.0975 2.58612 -5.27995 -54.6925 2.95229 -35.4867 -17.8749 15.8389 -59.2071 14.9069 7.50002 -14.1627 34.3126 5.6317 9.85717 37.3718 0.770221 28.8639 -13.2255 27.8581 71.4418 -33.375 7.43857 3.11619 8.08236 -11.7675 8.64036 0.550327 51.4743 0.920052 -6.78805 -30.6386 -1.25754 -1.35869e-009 8.75238e-006 -1.4732e-008 
-61.3401 95.7513 138.44 4.35721 7.24718 137.892 -31.2409 -21.9925 -28.5022 0.554768 18.7314 -7.24836 9.73756 -7.38004 -0.193281 0.0462048 0.000530889 0.662642 -2.22503 21.6683 2.92925 2.52698 8.09764 2.03144 0.457537 -12.7667 11.9623 -23.1794 2.54935 -5.13246 -52.7477 3.90727 -38.9008 -13.1712 17.4976 -57.8167 13.139 7.86379 -13.635 34.3141 5.61604 9.81826 38.507 -2.90759 28.2391 -13.0219 27.8182 71.303 -33.7405 7.49279 2.83034 8.15136 -9.14463 7.66634 0.657238 52.1666 2.66369 -9.07106 -33.1863 -1.94607 -1.35869e-009 8.75238e-006 -1.4732e-008 
-57.5748 95.086 137.302 4.31284 7.53298 136.057 -31.5514 -22.2156 -22.9306 0.400367 12.2492 -12.6662 10.6166 -8.4406 -0.104533 0.0462048 0.000530889 0.662642 -3.39086 21.1119 2.45193 4.65365 8.36507 0.837942 -0.276307 -11.1814 14.7528 -22.4389 2.48903 -5.13406 -49.7471 4.93348 -41.052 -8.447 19.3057 -55.1628 11.4103 8.16612 -13.5 34.1364 5.48709 9.56003 39.7488 -7.13451 25.9887 -12.8929 27.6414 71.8262 -33.557 7.57124 2.60979 8.65969 -5.84286 7.3415 0.749519 51.6602 4.5128 -10.7121 -34.8828 -2.50476 -1.35869e-009 8.75238e-006 -1.4732e-008 
-53.0172 94.6333 135.834 4.44958 7.22116 133.762 -30.9429 -23.1251 -21.8687 -0.694823 10.0935 -10.6341 11.4915 -9.22229 -0.0230626 0.0462048 0.000530889 0.662642 -3.18036 19.7471 1.41161 5.0853 8.03091 -0.235863 -1.52253 -8.39788 18.1964 -21.0603 2.41569 -5.27578 -45.9347 5.82641 -40.7816 -5.20137 20.7462 -51.6015 10.53 8.30888 -13.5319 33.616 5.27944 9.21388 40.2575 -11.3707 22.5398 -12.3933 27.3763 72.1826 -33.1136 7.63144 2.51617 10.072 -1.44647 7.96229 0.788625 49.6589 5.5637 -12.7607 -35.9044 -3.15423 -1.35869e-009 8.75238e-006 -1.4732e-008 
-47.6032 94.1928 134.089 4.9416 6.50379 130.628 -29.4994 -24.4333 -20.4999 -0.920948 12.7096 -4.77721 13.2085 -10.8501 0.185489 0.0462048 0.000530889 0.662642 -1.70458 17.3185 -0.0314112 3.79596 7.88153 -1.12463 -3.35792 -4.57086 22.6371 -19.5284 2.32516 -5.40988 -41.9537 6.31277 -37.6228 -2.71404 22.2176 -47.9683 10.2394 8.37875 -13.2696 32.5861 5.00092 8.83818 39.8435 -15.1172 19.0113 -11.619 27.2303 71.6482 -32.9615 7.68708 2.36019 12.3496 4.24586 10.0563 0.735899 46.6155 5.83673 -16.9516 -35.9318 -4.26712 -1.35869e-009 8.75238e-006 -1.4732e-008 
-41.6399 93.43 132.381 5.52079 5.67025 126.665 -27.4412 -26.4829 -17.233 -0.713749 18.5242 2.51423 16.1282 -12.4375 0.48261 0.0462048 0.000530889 0.662642 0.110457 14.3681 -1.51828 1.76599 8.38225 -1.92468 -5.55048 -0.759209 28.1774 -18.2283 2.15524 -5.15972 -37.784 6.56593 -32.0828 -0.160759 24.2451 -44.6133 9.82688 8.48299 -12.8014 31.1046 4.649 8.38724 38.8528 -18.4136 16.3643 -11.0827 27.2393 70.7301 -33.4662 7.83771 1.71606 14.5511 9.4586 13.3844 0.846795 45.5329 7.96615 -20.8814 -33.3352 -4.78918 -1.35869e-009 8.75238e-006 -1.4732e-008 
